<svg width="30" height="30" viewBox="0 0 30 30" fill="none" xmlns="http://www.w3.org/2000/svg">
<path d="M2.54417 6.5217C1.75527 13.9622 4.17467 19.512 7.08656 23.2301C8.59187 25.1521 10.2279 26.5846 11.6198 27.5426C12.3153 28.0213 12.9598 28.3885 13.5072 28.6399C14.0129 28.8723 14.554 29.0625 15.0001 29.0625C15.4462 29.0625 15.9873 28.8723 16.493 28.6399C17.0404 28.3885 17.6849 28.0213 18.3804 27.5426C19.254 26.9414 20.2237 26.1532 21.1969 25.1744L19.8711 23.8486C18.9815 24.7437 18.1003 25.4592 17.3173 25.9981C16.6941 26.4271 16.1431 26.7373 15.7102 26.9362C15.4935 27.0358 15.3162 27.1029 15.1816 27.1436C15.0707 27.1771 15.0136 27.185 15.0001 27.1869C14.9865 27.185 14.9295 27.1771 14.8186 27.1436C14.684 27.1029 14.5067 27.0358 14.29 26.9362C13.857 26.7373 13.3061 26.4271 12.6829 25.9981C11.4374 25.1409 9.94347 23.8369 8.56272 22.074C6.11598 18.9498 4.02171 14.3841 4.29191 8.26945L2.54417 6.5217Z" fill="#2D31A6" fill-opacity="0.2"/>
<path d="M23.2678 19.2904C25.0895 15.9433 26.2576 11.5103 25.4949 5.92333C25.4523 5.61182 25.2259 5.33921 24.9033 5.23649C23.731 4.86313 21.7503 4.25136 19.7944 3.7339C17.7947 3.20482 15.9561 2.8125 15.0001 2.8125C14.044 2.8125 12.2055 3.20482 10.2058 3.7339C9.54719 3.90814 8.8858 4.09307 8.2534 4.27599L6.74325 2.76583C7.66485 2.49032 8.6975 2.19343 9.72619 1.92126C11.6816 1.40392 13.7583 0.9375 15.0001 0.9375C16.2419 0.9375 18.3186 1.40392 20.274 1.92126C22.2733 2.45022 24.2875 3.07255 25.4723 3.44991C26.4611 3.76483 27.209 4.61764 27.3526 5.6697C28.2115 11.9602 26.7922 16.9481 24.6448 20.6674L23.2678 19.2904Z" fill="#2D31A6" fill-opacity="0.2"/>
<path fill-rule="evenodd" clip-rule="evenodd" d="M25.5872 26.9129L1.21216 2.53786L2.53798 1.21204L26.913 25.587L25.5872 26.9129Z" fill="#2D31A6" fill-opacity="0.2"/>
</svg>
